<svg width="18" height="14" viewBox="0 0 18 14" fill="none" xmlns="http://www.w3.org/2000/svg">
    <path
        d="M17.5101 1.71333C16.8742 1.99466 16.1998 2.17948 15.5093 2.26167C16.2368 1.82595 16.7812 1.14061 17.0409 0.333333C16.3576 0.74 15.6084 1.025 14.8284 1.17917C14.3039 0.617982 13.6087 0.245803 12.8509 0.120487C12.0931 -0.00482821 11.3151 0.123742 10.6378 0.486211C9.9606 0.848679 9.42209 1.42474 9.10603 2.12483C8.78997 2.82492 8.71406 3.60982 8.8901 4.3575C7.50422 4.28816 6.14841 3.92811 4.91072 3.30072C3.67303 2.67333 2.58114 1.79264 1.70594 0.715833C1.39618 1.24788 1.2334 1.85269 1.23427 2.46833C1.23427 3.67667 1.8501 4.74417 2.78427 5.36917C2.23095 5.35171 1.68981 5.20229 1.20594 4.93333V4.97583C1.20591 5.78073 1.4843 6.56085 1.99388 7.18389C2.50346 7.80693 3.21287 8.23453 4.00177 8.39417C3.48814 8.53351 2.94952 8.55403 2.42677 8.45417C2.64921 9.14699 3.08278 9.75289 3.66677 10.187C4.25076 10.6211 4.9559 10.8617 5.68344 10.875C4.9604 11.4429 4.13251 11.8626 3.24711 12.1103C2.36171 12.358 1.43618 12.4287 0.523438 12.3183C2.11654 13.3428 3.97102 13.8867 5.8651 13.885C12.2768 13.885 15.7818 8.57417 15.7818 3.96833C15.7818 3.81833 15.7784 3.66667 15.7718 3.5175C16.4538 3.02446 17.0424 2.41297 17.5101 1.71333Z"
        fill="#F8F8F8" />
</svg>