<svg width="66" height="66" viewBox="0 0 66 66" fill="none" xmlns="http://www.w3.org/2000/svg">
    <rect width="6" height="6" fill="#BABABA" />
    <rect x="12" width="6" height="6" fill="#BABABA" />
    <rect x="48" width="6" height="6" fill="#BABABA" />
    <rect x="60" width="6" height="6" fill="#BABABA" />
    <rect x="24" width="6" height="6" fill="#BABABA" />
    <rect x="36" width="6" height="6" fill="#BABABA" />
    <rect x="6" y="6" width="6" height="6" fill="#BABABA" />
    <rect x="18" y="6" width="6" height="6" fill="#BABABA" />
    <rect x="54" y="6" width="6" height="6" fill="#BABABA" />
    <rect x="30" y="6" width="6" height="6" fill="#BABABA" />
    <rect x="42" y="6" width="6" height="6" fill="#BABABA" />
    <rect y="60" width="6" height="6" fill="#BABABA" />
    <rect x="12" y="60" width="6" height="6" fill="#BABABA" />
    <rect x="48" y="60" width="6" height="6" fill="#BABABA" />
    <rect x="60" y="60" width="6" height="6" fill="#BABABA" />
    <rect x="24" y="60" width="6" height="6" fill="#BABABA" />
    <rect x="36" y="60" width="6" height="6" fill="#BABABA" />
    <rect y="48" width="6" height="6" fill="#BABABA" />
    <rect x="12" y="48" width="6" height="6" fill="#BABABA" />
    <rect x="48" y="48" width="6" height="6" fill="#BABABA" />
    <rect x="60" y="48" width="6" height="6" fill="#BABABA" />
    <rect x="24" y="48" width="6" height="6" fill="#BABABA" />
    <rect x="36" y="48" width="6" height="6" fill="#BABABA" />
    <rect x="6" y="54" width="6" height="6" fill="#BABABA" />
    <rect x="18" y="54" width="6" height="6" fill="#BABABA" />
    <rect x="54" y="54" width="6" height="6" fill="#BABABA" />
    <rect x="30" y="54" width="6" height="6" fill="#BABABA" />
    <rect x="42" y="54" width="6" height="6" fill="#BABABA" />
    <rect y="36" width="6" height="6" fill="#BABABA" />
    <rect x="12" y="36" width="6" height="6" fill="#BABABA" />
    <rect x="48" y="36" width="6" height="6" fill="#BABABA" />
    <rect x="60" y="36" width="6" height="6" fill="#BABABA" />
    <rect x="24" y="36" width="6" height="6" fill="#BABABA" />
    <rect x="36" y="36" width="6" height="6" fill="#BABABA" />
    <rect x="6" y="42" width="6" height="6" fill="#BABABA" />
    <rect x="18" y="42" width="6" height="6" fill="#BABABA" />
    <rect x="54" y="42" width="6" height="6" fill="#BABABA" />
    <rect x="30" y="42" width="6" height="6" fill="#BABABA" />
    <rect x="42" y="42" width="6" height="6" fill="#BABABA" />
    <rect y="24" width="6" height="6" fill="#BABABA" />
    <rect x="12" y="24" width="6" height="6" fill="#BABABA" />
    <rect x="48" y="24" width="6" height="6" fill="#BABABA" />
    <rect x="60" y="24" width="6" height="6" fill="#BABABA" />
    <rect x="24" y="24" width="6" height="6" fill="#BABABA" />
    <rect x="36" y="24" width="6" height="6" fill="#BABABA" />
    <rect x="6" y="30" width="6" height="6" fill="#BABABA" />
    <rect x="18" y="30" width="6" height="6" fill="#BABABA" />
    <rect x="54" y="30" width="6" height="6" fill="#BABABA" />
    <rect x="30" y="30" width="6" height="6" fill="#BABABA" />
    <rect x="42" y="30" width="6" height="6" fill="#BABABA" />
    <rect y="12" width="6" height="6" fill="#BABABA" />
    <rect x="12" y="12" width="6" height="6" fill="#BABABA" />
    <rect x="48" y="12" width="6" height="6" fill="#BABABA" />
    <rect x="60" y="12" width="6" height="6" fill="#BABABA" />
    <rect x="24" y="12" width="6" height="6" fill="#BABABA" />
    <rect x="36" y="12" width="6" height="6" fill="#BABABA" />
    <rect x="6" y="18" width="6" height="6" fill="#BABABA" />
    <rect x="18" y="18" width="6" height="6" fill="#BABABA" />
    <rect x="54" y="18" width="6" height="6" fill="#BABABA" />
    <rect x="30" y="18" width="6" height="6" fill="#BABABA" />
    <rect x="42" y="18" width="6" height="6" fill="#BABABA" />
</svg>