<svg width="188" height="38" viewBox="0 0 188 38" fill="none" xmlns="http://www.w3.org/2000/svg">
    <path
        d="M5.74692 28.7254C7.28709 29.7997 9.7842 29.7997 11.3244 28.7254C12.8645 27.6511 12.8645 25.9093 11.3244 24.835C9.7842 23.7607 7.28709 23.7607 5.74692 24.835C4.20675 25.9093 4.20675 27.6511 5.74692 28.7254Z"
        fill="#B8B8B8" />
    <path
        d="M21.7327 14.1369C24.043 15.7483 27.7885 15.7483 30.0988 14.1369C32.409 12.5254 32.409 9.91278 30.0988 8.30135C27.7885 6.68991 24.043 6.68991 21.7327 8.30135C19.4225 9.91278 19.4225 12.5254 21.7327 14.1369Z"
        fill="#B8B8B8" />
    <path
        d="M13.2466 21.4316C15.1718 22.7744 18.2932 22.7744 20.2184 21.4316C22.1436 20.0887 22.1436 17.9115 20.2184 16.5686C18.2932 15.2258 15.1718 15.2258 13.2466 16.5686C11.3214 17.9115 11.3214 20.0887 13.2466 21.4316Z"
        fill="#B8B8B8" />
    <path
        d="M0.866345 20.4586C2.02147 21.2643 3.8943 21.2643 5.04943 20.4586C6.20455 19.6529 6.20455 18.3466 5.04943 17.5408C3.8943 16.7351 2.02147 16.7351 0.866345 17.5408C-0.288782 18.3466 -0.288781 19.6529 0.866345 20.4586Z"
        fill="#B8B8B8" />
    <path
        d="M13.2466 5.87008C15.1718 7.21294 18.2932 7.21294 20.2184 5.87008C22.1436 4.52722 22.1436 2.35001 20.2184 1.00715C18.2932 -0.335716 15.1718 -0.335717 13.2466 1.00715C11.3214 2.35001 11.3214 4.52722 13.2466 5.87008Z"
        fill="#8D8D8D" />
    <path
        d="M5.74692 13.1648C7.28709 14.2391 9.7842 14.2391 11.3244 13.1648C12.8645 12.0905 12.8645 10.3487 11.3244 9.27447C9.7842 8.20018 7.28709 8.20018 5.74692 9.27447C4.20675 10.3487 4.20676 12.0905 5.74692 13.1648Z"
        fill="#8D8D8D" />
    <path
        d="M13.2466 36.9931C15.1718 38.3359 18.2932 38.3359 20.2184 36.9931C22.1436 35.6502 22.1436 33.473 20.2184 32.1301C18.2932 30.7873 15.1718 30.7873 13.2466 32.1301C11.3214 33.473 11.3214 35.6502 13.2466 36.9931Z"
        fill="#8D8D8D" />
    <path
        d="M31.9006 21.9181C34.2109 23.5295 37.9566 23.5295 40.2668 21.9181C42.5771 20.3067 42.5771 17.694 40.2668 16.0826C37.9566 14.4711 34.2109 14.4711 31.9006 16.0826C29.5904 17.694 29.5904 20.3067 31.9006 21.9181Z"
        fill="#B8B8B8" />
    <path
        d="M21.7327 29.6983C24.043 31.3098 27.7885 31.3098 30.0988 29.6983C32.409 28.0869 32.409 25.4743 30.0988 23.8628C27.7885 22.2514 24.043 22.2514 21.7327 23.8628C19.4225 25.4743 19.4225 28.0869 21.7327 29.6983Z"
        fill="#8D8D8D" />
    <path
        d="M54.1514 23.9062H54.4863C54.9876 23.9062 55.3226 23.8197 55.4912 23.6465C55.6598 23.4733 55.8535 23.1406 56.0723 22.6484C56.2956 22.1517 56.5804 21.516 56.9268 20.7412C57.2777 19.9619 57.7197 18.9798 58.2529 17.7949C58.7861 16.6055 59.1712 15.7487 59.4082 15.2246C59.6452 14.7005 59.8503 14.2516 60.0234 13.8779C60.1966 13.4997 60.3151 13.2354 60.3789 13.085C60.4427 12.9346 60.5133 12.7705 60.5908 12.5928L63.4414 5.6543H64.0293C65.1595 8.60286 66.5882 12.1689 68.3154 16.3525C70.0426 20.5316 70.9974 22.792 71.1797 23.1338C71.362 23.4756 71.5488 23.6898 71.7402 23.7764C71.9362 23.863 72.2051 23.9062 72.5469 23.9062H72.9639L72.9365 25H66.5518L66.5791 23.9062H67.4199C67.8848 23.9062 68.2061 23.888 68.3838 23.8516C68.5615 23.8105 68.6504 23.7171 68.6504 23.5713C68.6504 23.4665 68.6071 23.3092 68.5205 23.0996C68.4385 22.8854 68.3883 22.7533 68.3701 22.7031L66.2988 17.6104H59.8047L57.5898 22.5391C57.403 22.9948 57.3096 23.3115 57.3096 23.4893C57.3096 23.667 57.3802 23.7809 57.5215 23.8311C57.6673 23.8812 57.9795 23.9062 58.458 23.9062H59.6064V25H54.1787L54.1514 23.9062ZM60.3379 16.373H65.8271L63.168 9.74219L60.3379 16.373ZM82.1377 24.1045C83.0902 24.1045 83.5664 23.9928 83.5664 23.7695C83.5664 23.6647 83.4798 23.5212 83.3066 23.3389C83.138 23.1566 83.0378 23.0472 83.0059 23.0107L80.6816 20.2969L77.8789 23.2637C77.6374 23.5326 77.5166 23.724 77.5166 23.8379C77.5166 24.0156 77.9564 24.1045 78.8359 24.1045H79.5059V25H74.1875L74.2148 24.1045H74.4336C74.985 24.1045 75.3496 24.0475 75.5273 23.9336C75.8555 23.7331 76.1836 23.4733 76.5117 23.1543L80.0391 19.627L76.4229 15.7852C76.04 15.3796 75.8031 15.1608 75.7119 15.1289C75.6253 15.097 75.5205 15.0583 75.3975 15.0127C75.2243 14.9489 74.9417 14.917 74.5498 14.917V14.0215H80.627V14.917H80.0664C79.6016 14.917 79.2643 14.9375 79.0547 14.9785C78.8496 15.015 78.7471 15.0947 78.7471 15.2178C78.7471 15.3363 78.8496 15.5254 79.0547 15.7852L81.2422 18.3076L83.4844 15.9561C83.8353 15.5778 84.0107 15.3249 84.0107 15.1973C84.0107 15.0104 83.5915 14.917 82.7529 14.917V14.0215H87.6816V14.917H87.1211C86.5013 14.917 86.1299 14.9603 86.0068 15.0469C85.8838 15.1289 85.7676 15.2109 85.6582 15.293C85.5534 15.375 85.4736 15.4456 85.4189 15.5049C85.3643 15.5596 85.2503 15.6735 85.0771 15.8467L81.9121 18.9775L85.8018 23.0928C86.2803 23.6169 86.5742 23.904 86.6836 23.9541C86.7975 23.9997 86.9092 24.0361 87.0186 24.0635C87.1279 24.0908 87.2259 24.1045 87.3125 24.1045H87.791V25H82.1377V24.1045ZM88.7344 19.5244C88.7344 18.9411 88.8027 18.3737 88.9395 17.8223C89.0762 17.2708 89.2904 16.749 89.582 16.2568C89.8783 15.7601 90.2383 15.3294 90.6621 14.9648C91.5918 14.1719 92.7972 13.7754 94.2783 13.7754C96.1149 13.7754 97.5436 14.3132 98.5645 15.3887C99.6309 16.5052 100.164 17.9909 100.164 19.8457C100.164 21.4362 99.6445 22.7578 98.6055 23.8105C97.5391 24.8815 96.1172 25.417 94.3398 25.417C92.2344 25.417 90.6621 24.5557 89.623 22.833C89.0306 21.8532 88.7344 20.7503 88.7344 19.5244ZM90.9766 18.752C90.9766 19.3444 91.0312 19.9027 91.1406 20.4268C91.25 20.9463 91.4118 21.4408 91.626 21.9102C91.8447 22.375 92.0999 22.7897 92.3916 23.1543C92.6878 23.5143 93.0342 23.8014 93.4307 24.0156C93.8317 24.2253 94.2555 24.3301 94.7021 24.3301C95.1488 24.3301 95.5498 24.2458 95.9053 24.0771C96.2607 23.9085 96.5547 23.6807 96.7871 23.3936C97.0241 23.1064 97.2201 22.7669 97.375 22.375C97.6667 21.6458 97.8125 20.8232 97.8125 19.9072C97.8125 18.9912 97.71 18.2074 97.5049 17.5557C97.3044 16.8994 97.0286 16.3685 96.6777 15.9629C95.9577 15.138 95.0758 14.7256 94.0322 14.7256C93.1937 14.7256 92.4805 15.0719 91.8926 15.7646C91.2819 16.4893 90.9766 17.485 90.9766 18.752ZM109.68 17.6377C109.68 16.8584 109.536 16.3092 109.249 15.9902C108.966 15.6667 108.461 15.5049 107.731 15.5049C107.007 15.5049 106.043 15.8057 104.84 16.4072V23.4414C104.84 23.6738 104.89 23.8288 104.99 23.9062C105.09 23.9837 105.175 24.027 105.243 24.0361C105.312 24.0452 105.412 24.0566 105.544 24.0703C105.713 24.0931 106.036 24.1045 106.515 24.1045H106.884L106.822 25H101.367L101.34 24.1045C101.572 24.1045 101.773 24.1045 101.941 24.1045C102.11 24.1045 102.244 24.0977 102.345 24.084C102.45 24.0658 102.525 24.0521 102.57 24.043C102.62 24.0339 102.668 24.0065 102.714 23.9609C102.764 23.9154 102.796 23.8789 102.81 23.8516C102.828 23.8242 102.844 23.7673 102.857 23.6807C102.871 23.5895 102.878 23.5143 102.878 23.4551V16.4893C102.878 15.8923 102.853 15.5094 102.803 15.3408C102.757 15.1722 102.641 15.0879 102.454 15.0879C102.404 15.0879 102.051 15.1631 101.395 15.3135V14.4453L104.84 13.7412C104.781 14.4658 104.751 15.1289 104.751 15.7305C104.815 15.7031 104.942 15.6188 105.134 15.4775C105.33 15.3317 105.551 15.1768 105.797 15.0127C106.048 14.8486 106.33 14.6823 106.645 14.5137C107.374 14.1309 108.037 13.9395 108.634 13.9395C109.231 13.9395 109.671 13.9873 109.953 14.083C110.24 14.1787 110.475 14.2972 110.657 14.4385C110.844 14.5752 111.001 14.7734 111.129 15.0332C111.261 15.2884 111.359 15.5231 111.423 15.7373C111.491 15.9469 111.544 16.234 111.58 16.5986C111.621 17.0589 111.642 17.6764 111.642 18.4512V23.2637C111.642 23.6602 111.744 23.8994 111.949 23.9814C112.159 24.0635 112.626 24.1045 113.351 24.1045L113.323 25H108.114L108.087 24.1045H108.729C109.217 24.1045 109.488 24.0544 109.543 23.9541C109.634 23.7855 109.68 23.5553 109.68 23.2637V17.6377ZM119.749 7.44531V6.32422H126.715V7.44531H125.99C125.288 7.44531 124.881 7.49089 124.767 7.58203C124.653 7.67318 124.571 7.7666 124.521 7.8623C124.438 8.01725 124.397 8.28841 124.397 8.67578V13.9941H133.496V8.4502C133.496 7.95345 133.453 7.68001 133.366 7.62988C133.284 7.5752 133.177 7.5319 133.045 7.5C132.899 7.46354 132.564 7.44531 132.04 7.44531H130.864L130.837 6.32422H137.946V7.44531H137.16C136.54 7.44531 136.178 7.48861 136.073 7.5752C135.973 7.66178 135.902 7.75065 135.861 7.8418C135.798 7.98763 135.766 8.2474 135.766 8.62109V22.7578C135.766 23.2956 135.85 23.6214 136.019 23.7354C136.192 23.8493 136.666 23.9062 137.44 23.9062H138.397L138.363 25H131.397L131.363 23.9062H132.177C132.792 23.9062 133.145 23.863 133.236 23.7764C133.327 23.6898 133.391 23.5941 133.428 23.4893C133.473 23.3434 133.496 23.0723 133.496 22.6758V15.3408H124.397V22.6758C124.397 23.2363 124.505 23.585 124.719 23.7217C124.906 23.8447 125.468 23.9062 126.407 23.9062H127.221L127.166 25H119.995L119.968 23.9062C120.369 23.9062 120.697 23.9062 120.952 23.9062C121.207 23.9062 121.396 23.8971 121.52 23.8789C121.647 23.8607 121.734 23.847 121.779 23.8379C121.829 23.8288 121.884 23.7969 121.943 23.7422C122.007 23.6829 122.044 23.6351 122.053 23.5986C122.066 23.5622 122.082 23.487 122.101 23.373C122.119 23.2546 122.128 23.1543 122.128 23.0723V8.36816C122.128 7.93522 122.025 7.67318 121.82 7.58203C121.62 7.49089 121.171 7.44531 120.474 7.44531H119.749ZM139.84 19.5244C139.84 18.9411 139.908 18.3737 140.045 17.8223C140.182 17.2708 140.396 16.749 140.688 16.2568C140.984 15.7601 141.344 15.3294 141.768 14.9648C142.697 14.1719 143.903 13.7754 145.384 13.7754C147.22 13.7754 148.649 14.3132 149.67 15.3887C150.736 16.5052 151.27 17.9909 151.27 19.8457C151.27 21.4362 150.75 22.7578 149.711 23.8105C148.645 24.8815 147.223 25.417 145.445 25.417C143.34 25.417 141.768 24.5557 140.729 22.833C140.136 21.8532 139.84 20.7503 139.84 19.5244ZM142.082 18.752C142.082 19.3444 142.137 19.9027 142.246 20.4268C142.355 20.9463 142.517 21.4408 142.731 21.9102C142.95 22.375 143.205 22.7897 143.497 23.1543C143.793 23.5143 144.14 23.8014 144.536 24.0156C144.937 24.2253 145.361 24.3301 145.808 24.3301C146.254 24.3301 146.655 24.2458 147.011 24.0771C147.366 23.9085 147.66 23.6807 147.893 23.3936C148.13 23.1064 148.326 22.7669 148.48 22.375C148.772 21.6458 148.918 20.8232 148.918 19.9072C148.918 18.9912 148.815 18.2074 148.61 17.5557C148.41 16.8994 148.134 16.3685 147.783 15.9629C147.063 15.138 146.181 14.7256 145.138 14.7256C144.299 14.7256 143.586 15.0719 142.998 15.7646C142.387 16.4893 142.082 17.485 142.082 18.752ZM152.507 15.5664C152.284 15.5664 152.172 15.4912 152.172 15.3408C152.172 15.2406 152.411 14.9329 152.89 14.418C153.368 13.903 153.687 13.5566 153.847 13.3789C154.006 13.1966 154.241 12.9095 154.551 12.5176C155.212 11.6745 155.576 11.2529 155.645 11.2529C155.758 11.2529 155.815 11.319 155.815 11.4512V14.2197H159.596L159.425 15.5664H155.815V22.0879C155.815 22.9264 156.214 23.4505 157.012 23.6602C157.221 23.7148 157.467 23.7422 157.75 23.7422C158.037 23.7422 158.338 23.6989 158.652 23.6123C158.971 23.5212 159.227 23.4323 159.418 23.3457C159.609 23.2546 159.714 23.209 159.732 23.209C159.865 23.209 159.931 23.3184 159.931 23.5371C159.931 23.7513 159.755 24.002 159.404 24.2891C159.058 24.5762 158.62 24.8177 158.092 25.0137C157.563 25.2096 157.06 25.3076 156.581 25.3076C156.107 25.3076 155.69 25.2301 155.33 25.0752C154.97 24.9202 154.685 24.7038 154.476 24.4258C154.061 23.8743 153.854 23.1702 153.854 22.3135V15.5664H152.507ZM163.219 18.6699L163.191 19.0664C163.191 21.1491 164.025 22.5163 165.693 23.168C166.195 23.3639 166.696 23.4619 167.197 23.4619C167.699 23.4619 168.138 23.4163 168.517 23.3252C168.895 23.234 169.212 23.1247 169.467 22.9971C169.727 22.8649 169.959 22.735 170.164 22.6074C170.67 22.2975 170.966 22.1426 171.053 22.1426C171.221 22.1426 171.306 22.2269 171.306 22.3955C171.306 22.5641 171.228 22.7601 171.073 22.9834C170.918 23.2067 170.686 23.4551 170.376 23.7285C170.066 23.9974 169.713 24.2526 169.316 24.4941C168.378 25.0729 167.343 25.3623 166.213 25.3623C164.677 25.3623 163.451 24.8678 162.535 23.8789C161.569 22.8262 161.086 21.4909 161.086 19.873C161.086 18.0729 161.564 16.61 162.521 15.4844C163.46 14.3815 164.634 13.8301 166.042 13.8301C167.619 13.8301 168.913 14.4635 169.925 15.7305C170.435 16.3685 170.69 16.929 170.69 17.4121C170.69 17.5443 170.636 17.6468 170.526 17.7197C170.422 17.7926 170.328 17.8291 170.246 17.8291L163.219 18.6699ZM163.273 17.6924L168.086 17.0771C167.967 16.6624 167.776 16.2842 167.512 15.9424C167.247 15.596 167.042 15.359 166.896 15.2314C166.546 14.9307 166.124 14.7803 165.632 14.7803C165.14 14.7803 164.661 15.0423 164.196 15.5664C163.731 16.0859 163.424 16.7946 163.273 17.6924ZM172.188 5.31934C173.778 5.10059 175.15 4.88411 176.303 4.66992V23.3457C176.303 23.6829 176.41 23.8949 176.624 23.9814C176.838 24.0635 177.328 24.1045 178.094 24.1045H178.572V25H172.468V24.1045H173.083C173.58 24.1045 173.912 24.0612 174.081 23.9746C174.254 23.8835 174.341 23.6738 174.341 23.3457V7.39062C174.341 6.79362 174.311 6.41081 174.252 6.24219C174.197 6.07357 174.076 5.98926 173.89 5.98926C173.703 5.98926 173.154 6.08268 172.242 6.26953L172.188 5.31934ZM180.808 25.3623L180.835 25.6426L180.021 25.6973L179.516 21.0488L180.384 20.9941L180.664 23.3184C181.225 23.7559 181.803 24.0475 182.4 24.1934C183.002 24.3392 183.444 24.4121 183.727 24.4121C184.009 24.4121 184.257 24.3643 184.472 24.2686C184.686 24.1729 184.857 24.0452 184.984 23.8857C185.24 23.5576 185.367 23.2477 185.367 22.9561C185.367 22.6644 185.331 22.4251 185.258 22.2383C185.185 22.0514 185.096 21.8896 184.991 21.7529C184.891 21.6117 184.747 21.459 184.561 21.2949C184.292 21.0716 183.918 20.805 183.439 20.4951L182.428 19.8184C181.029 18.9069 180.329 17.8724 180.329 16.7148C180.329 16.2181 180.477 15.7555 180.773 15.3271C181.074 14.8942 181.487 14.5501 182.011 14.2949C182.539 14.0397 183.063 13.9121 183.583 13.9121C184.103 13.9121 184.542 13.9554 184.902 14.042C185.267 14.124 185.556 14.2083 185.771 14.2949C185.985 14.377 186.133 14.418 186.215 14.418C186.361 14.418 186.434 14.1377 186.434 13.5771L187.329 13.6045V17.8291H186.434L186.406 15.8467C186.092 15.4684 185.527 15.1927 184.711 15.0195C184.41 14.9512 184.077 14.917 183.713 14.917C183.348 14.917 183 15.0492 182.667 15.3135C182.339 15.5778 182.175 15.8945 182.175 16.2637C182.175 16.5417 182.218 16.7445 182.305 16.8721C182.391 16.9951 182.446 17.0794 182.469 17.125C182.496 17.1706 182.551 17.2321 182.633 17.3096C182.719 17.387 182.776 17.4417 182.804 17.4736C182.836 17.501 182.906 17.5557 183.016 17.6377C183.13 17.7197 183.202 17.7721 183.234 17.7949C183.335 17.877 183.496 17.9909 183.72 18.1367L184.978 18.9775C185.839 19.5563 186.374 19.9733 186.584 20.2285C186.798 20.4792 186.967 20.7025 187.09 20.8984C187.322 21.2721 187.438 21.6868 187.438 22.1426C187.438 22.5983 187.361 23.0153 187.206 23.3936C187.051 23.7673 186.828 24.1022 186.536 24.3984C185.903 25.041 184.991 25.3623 183.802 25.3623C183.168 25.3623 182.56 25.3008 181.977 25.1777C181.398 25.0592 181.09 25 181.054 25C180.89 25 180.808 25.1208 180.808 25.3623Z"
        fill="#8D8D8D" />
</svg>