<svg width="172" height="30" viewBox="0 0 172 30" fill="none" xmlns="http://www.w3.org/2000/svg">
    <path
        d="M18.5147 0C15.4686 0 12.5473 1.21005 10.3934 3.36396L3.36396 10.3934C1.21005 12.5473 0 15.4686 0 18.5147C0 24.8579 5.14214 30 11.4853 30C14.5314 30 17.4527 28.7899 19.6066 26.636L24.4689 21.7737C24.469 21.7738 24.4689 21.7736 24.4689 21.7737L38.636 7.6066C39.6647 6.57791 41.0599 6 42.5147 6C44.9503 6 47.0152 7.58741 47.7311 9.78407L52.2022 5.31296C50.1625 2.11834 46.586 0 42.5147 0C39.4686 0 36.5473 1.21005 34.3934 3.36396L15.364 22.3934C14.3353 23.4221 12.9401 24 11.4853 24C8.45584 24 6 21.5442 6 18.5147C6 17.0599 6.57791 15.6647 7.6066 14.636L14.636 7.6066C15.6647 6.57791 17.0599 6 18.5147 6C20.9504 6 23.0152 7.58748 23.7311 9.78421L28.2023 5.31307C26.1626 2.1184 22.5861 0 18.5147 0Z"
        fill="#8D8D8D" />
    <path
        d="M39.3636 22.3934C38.3349 23.4221 36.9397 24 35.4849 24C33.0496 24 30.985 22.413 30.2689 20.2167L25.7979 24.6877C27.8377 27.8819 31.4139 30 35.4849 30C38.531 30 41.4524 28.7899 43.6063 26.636L62.6357 7.6066C63.6644 6.57791 65.0596 6 66.5144 6C69.5439 6 71.9996 8.45584 71.9996 11.4853C71.9996 12.9401 71.4218 14.3353 70.3931 15.364L63.3636 22.3934C62.3349 23.4221 60.9397 24 59.4849 24C57.0494 24 54.9847 22.4127 54.2687 20.2162L49.7977 24.6873C51.8374 27.8818 55.4137 30 59.4849 30C62.531 30 65.4523 28.7899 67.6062 26.636L74.6357 19.6066C76.7896 17.4527 77.9996 14.5314 77.9996 11.4853C77.9996 5.14214 72.8576 0 66.5144 0C63.4683 0 60.547 1.21005 58.3931 3.36396L39.3636 22.3934Z"
        fill="#B8B8B8" />
    <path
        d="M92.736 13.72C91.552 13.208 90.96 12.712 90.96 12.232C90.96 11.976 91.064 11.856 91.272 11.872C91.56 11.872 91.888 11.944 92.256 12.088C92.624 12.216 93 12.32 93.384 12.4C94.696 9.92 96.184 8.296 97.848 7.528C98.408 7.272 98.968 7.136 99.528 7.12C100.632 7.12 101.472 7.392 102.048 7.936C102.64 8.464 102.936 9.112 102.936 9.88C102.936 11.256 102.192 12.32 100.704 13.072C99.488 13.68 97.832 14.056 95.736 14.2C94.984 16.056 94.608 18.048 94.608 20.176C94.608 21.76 94.976 22.68 95.712 22.936C96.224 23.112 96.608 23.12 96.864 22.96C97.12 22.784 97.32 22.56 97.464 22.288C97.608 22 97.68 21.584 97.68 21.04C97.696 20.496 97.544 20.04 97.224 19.672C96.92 19.288 96.624 18.936 96.336 18.616C96.48 18.088 96.688 17.648 96.96 17.296C97.472 16.608 97.912 16.264 98.28 16.264C98.648 16.264 98.944 16.392 99.168 16.648C99.408 16.904 99.6 17.224 99.744 17.608C99.888 17.992 100 18.408 100.08 18.856C100.176 19.304 100.28 19.72 100.392 20.104C100.504 20.488 100.64 20.808 100.8 21.064C100.976 21.32 101.2 21.448 101.472 21.448C101.76 21.448 102.016 21.344 102.24 21.136C102.464 20.912 102.664 20.672 102.84 20.416C103.016 20.16 103.176 19.928 103.32 19.72C103.464 19.496 103.608 19.384 103.752 19.384C103.912 19.384 104.064 19.512 104.208 19.768C104.368 20.024 104.448 20.264 104.448 20.488C104.448 21 104.192 21.608 103.68 22.312C103.184 23.016 102.544 23.368 101.76 23.368C100.976 23.352 100.368 23.184 99.936 22.864C99.664 23.536 99.2 24.096 98.544 24.544C97.888 24.992 96.952 25.216 95.736 25.216C94.536 25.216 93.504 24.904 92.64 24.28C91.6 23.528 91.08 22.36 91.08 20.776C91.08 18.52 91.632 16.168 92.736 13.72ZM100.296 10.312C100.28 9.752 100.072 9.472 99.672 9.472C99.288 9.472 98.784 9.768 98.16 10.36C97.536 10.952 96.936 11.776 96.36 12.832C98.104 12.528 99.296 11.992 99.936 11.224C100.16 10.936 100.28 10.632 100.296 10.312ZM110.582 14.872C110.582 13.8 111.414 13.264 113.078 13.264C113.494 13.264 113.75 13.4 113.846 13.672C113.958 13.944 114.014 14.36 114.014 14.92C114.014 15.704 113.838 16.92 113.486 18.568C113.134 20.216 112.966 21.328 112.982 21.904C112.982 22.176 113.07 22.312 113.246 22.312C113.486 22.312 113.782 22.16 114.134 21.856C114.486 21.552 114.838 21.224 115.19 20.872C115.542 20.504 115.862 20.168 116.15 19.864C116.454 19.56 116.662 19.408 116.774 19.408C116.998 19.408 117.11 19.68 117.11 20.224C117.11 21.344 116.558 22.424 115.454 23.464C113.598 24.552 112.422 25.096 111.926 25.096C111.878 25.096 111.838 25.088 111.806 25.072C111.198 25.072 110.766 24.872 110.51 24.472C110.27 24.072 110.118 23.568 110.054 22.96C109.734 23.552 109.294 24.064 108.734 24.496C108.174 24.912 107.534 25.12 106.814 25.12C105.55 25.12 104.574 24.88 103.886 24.4C103.214 23.92 102.878 23.208 102.878 22.264C102.878 21.848 102.934 21.464 103.046 21.112C103.174 20.76 103.374 20.328 103.646 19.816L104.342 13.912C104.838 13.528 105.55 13.336 106.478 13.336C107.214 13.336 107.63 13.816 107.726 14.776C107.806 15.56 107.766 16.264 107.606 16.888C107.462 17.496 107.262 18.272 107.006 19.216C106.75 20.144 106.622 20.968 106.622 21.688C106.622 22.264 106.982 22.552 107.702 22.552C108.486 22.552 109.166 21.864 109.742 20.488C110.19 19.432 110.494 18.256 110.654 16.96C110.638 16.832 110.622 16.672 110.606 16.48C110.606 16.272 110.598 16.072 110.582 15.88C110.582 15.688 110.582 15.496 110.582 15.304V14.872ZM122.971 14.56C124.859 14.56 125.803 14.904 125.803 15.592C125.803 15.976 125.667 16.608 125.395 17.488C123.955 19.872 122.499 21.56 121.027 22.552C121.731 22.728 122.403 22.816 123.043 22.816C123.683 22.816 124.275 22.64 124.819 22.288C125.379 21.936 125.867 21.544 126.283 21.112C126.699 20.68 127.043 20.288 127.315 19.936C127.603 19.584 127.835 19.408 128.011 19.408C128.235 19.408 128.347 19.712 128.347 20.32C128.347 20.928 128.171 21.536 127.819 22.144C127.467 22.736 126.979 23.264 126.355 23.728C124.979 24.752 123.323 25.264 121.387 25.264C120.603 25.264 119.923 25.168 119.347 24.976C118.771 24.768 118.355 24.576 118.099 24.4C117.859 24.224 117.739 23.984 117.739 23.68C117.739 23.36 117.795 22.944 117.907 22.432C118.147 22.096 118.531 21.728 119.059 21.328C119.603 20.928 120.139 20.512 120.667 20.08C121.211 19.648 121.683 19.216 122.083 18.784C122.499 18.352 122.707 17.928 122.707 17.512C122.707 17.352 122.331 17.272 121.579 17.272L117.619 17.488C117.203 17.488 116.891 17.368 116.683 17.128C116.491 16.872 116.395 16.584 116.395 16.264C116.395 15.528 116.667 14.88 117.211 14.32C117.771 13.76 118.499 13.472 119.395 13.456C119.779 13.456 120.235 13.584 120.763 13.84C121.291 14.096 121.707 14.28 122.011 14.392C122.331 14.504 122.651 14.56 122.971 14.56ZM134.198 14.56C136.086 14.56 137.03 14.904 137.03 15.592C137.03 15.976 136.894 16.608 136.622 17.488C135.182 19.872 133.726 21.56 132.254 22.552C132.958 22.728 133.63 22.816 134.27 22.816C134.91 22.816 135.502 22.64 136.046 22.288C136.606 21.936 137.094 21.544 137.51 21.112C137.926 20.68 138.27 20.288 138.542 19.936C138.83 19.584 139.062 19.408 139.238 19.408C139.462 19.408 139.574 19.712 139.574 20.32C139.574 20.928 139.398 21.536 139.046 22.144C138.694 22.736 138.206 23.264 137.582 23.728C136.206 24.752 134.55 25.264 132.614 25.264C131.83 25.264 131.15 25.168 130.574 24.976C129.998 24.768 129.582 24.576 129.326 24.4C129.086 24.224 128.966 23.984 128.966 23.68C128.966 23.36 129.022 22.944 129.134 22.432C129.374 22.096 129.758 21.728 130.286 21.328C130.83 20.928 131.366 20.512 131.894 20.08C132.438 19.648 132.91 19.216 133.31 18.784C133.726 18.352 133.934 17.928 133.934 17.512C133.934 17.352 133.558 17.272 132.806 17.272L128.846 17.488C128.43 17.488 128.118 17.368 127.91 17.128C127.718 16.872 127.622 16.584 127.622 16.264C127.622 15.528 127.894 14.88 128.438 14.32C128.998 13.76 129.726 13.472 130.622 13.456C131.006 13.456 131.462 13.584 131.99 13.84C132.518 14.096 132.934 14.28 133.238 14.392C133.558 14.504 133.878 14.56 134.198 14.56ZM145.424 14.56C147.312 14.56 148.256 14.904 148.256 15.592C148.256 15.976 148.12 16.608 147.848 17.488C146.408 19.872 144.952 21.56 143.48 22.552C144.184 22.728 144.856 22.816 145.496 22.816C146.136 22.816 146.728 22.64 147.272 22.288C147.832 21.936 148.32 21.544 148.736 21.112C149.152 20.68 149.496 20.288 149.768 19.936C150.056 19.584 150.288 19.408 150.464 19.408C150.688 19.408 150.8 19.712 150.8 20.32C150.8 20.928 150.624 21.536 150.272 22.144C149.92 22.736 149.432 23.264 148.808 23.728C147.432 24.752 145.776 25.264 143.84 25.264C143.056 25.264 142.376 25.168 141.8 24.976C141.224 24.768 140.808 24.576 140.552 24.4C140.312 24.224 140.192 23.984 140.192 23.68C140.192 23.36 140.248 22.944 140.36 22.432C140.6 22.096 140.984 21.728 141.512 21.328C142.056 20.928 142.592 20.512 143.12 20.08C143.664 19.648 144.136 19.216 144.536 18.784C144.952 18.352 145.16 17.928 145.16 17.512C145.16 17.352 144.784 17.272 144.032 17.272L140.072 17.488C139.656 17.488 139.344 17.368 139.136 17.128C138.944 16.872 138.848 16.584 138.848 16.264C138.848 15.528 139.12 14.88 139.664 14.32C140.224 13.76 140.952 13.472 141.848 13.456C142.232 13.456 142.688 13.584 143.216 13.84C143.744 14.096 144.16 14.28 144.464 14.392C144.784 14.504 145.104 14.56 145.424 14.56ZM155.187 22.384C156.435 22.384 157.643 21.888 158.811 20.896C159.243 20.528 159.595 20.192 159.867 19.888C160.139 19.568 160.347 19.408 160.491 19.408C160.715 19.408 160.827 19.632 160.827 20.08C160.827 20.528 160.707 21.032 160.467 21.592C160.227 22.136 159.827 22.672 159.267 23.2C157.891 24.496 156.003 25.144 153.603 25.144C151.699 25.144 150.403 24.456 149.715 23.08C149.475 22.6 149.355 21.912 149.355 21.016C149.355 20.12 149.531 19.192 149.883 18.232C150.235 17.256 150.699 16.416 151.275 15.712C151.867 15.008 152.547 14.464 153.315 14.08C154.083 13.68 154.899 13.48 155.763 13.48C156.643 13.48 157.315 13.696 157.779 14.128C158.259 14.56 158.499 15.12 158.499 15.808C158.499 16.496 158.323 17.064 157.971 17.512C157.635 17.944 157.195 18.312 156.651 18.616C156.107 18.904 155.499 19.168 154.827 19.408C154.171 19.632 153.523 19.888 152.883 20.176V20.776C152.899 21.352 153.139 21.76 153.603 22C154.067 22.24 154.595 22.368 155.187 22.384ZM154.779 15.616C153.947 15.616 153.371 16.584 153.051 18.52C153.387 18.296 153.699 18.096 153.987 17.92C154.291 17.744 154.555 17.576 154.779 17.416C155.259 17.064 155.507 16.664 155.523 16.216C155.523 15.816 155.275 15.616 154.779 15.616ZM163.13 20.968L163.274 23.896C163.274 24.28 163.074 24.624 162.674 24.928C162.274 25.232 161.73 25.384 161.042 25.384C160.642 25.384 160.362 25.176 160.202 24.76C160.058 24.344 159.986 23.736 159.986 22.936C159.986 21.256 160.066 19.944 160.226 19C160.402 18.04 160.738 17.072 161.234 16.096C160.498 15.392 160.13 14.784 160.13 14.272C160.13 13.2 160.706 12.664 161.858 12.664C162.45 12.664 162.97 12.976 163.418 13.6C163.738 14.032 163.97 14.536 164.114 15.112C164.338 15.192 164.618 15.232 164.954 15.232C165.418 15.232 165.954 15.08 166.562 14.776L167.186 14.464C167.378 14.368 167.546 14.32 167.69 14.32C168.154 14.32 168.618 15 169.082 16.36C168.938 16.984 168.778 17.584 168.602 18.16C168.442 18.736 168.25 19.432 168.026 20.248C167.802 21.064 167.682 21.616 167.666 21.904C167.666 22.176 167.754 22.312 167.93 22.312C168.17 22.312 168.466 22.16 168.818 21.856C169.17 21.552 169.522 21.224 169.874 20.872C170.226 20.504 170.546 20.168 170.834 19.864C171.138 19.56 171.346 19.408 171.458 19.408C171.682 19.408 171.794 19.68 171.794 20.224C171.794 21.328 171.306 22.416 170.33 23.488C169.37 24.56 168.266 25.088 167.018 25.072C166.282 25.072 165.73 24.776 165.362 24.184C164.994 23.592 164.802 22.872 164.786 22.024C164.786 20.344 165.162 18.752 165.914 17.248C165.562 17.392 165.162 17.464 164.714 17.464C164.282 17.464 163.97 17.448 163.778 17.416C163.634 18.024 163.49 18.64 163.346 19.264C163.202 19.872 163.13 20.44 163.13 20.968Z"
        fill="#8D8D8D" />
</svg>