<svg width="158" height="45" viewBox="0 0 158 45" fill="none" xmlns="http://www.w3.org/2000/svg">
    <path
        d="M43.487 36.3523C40.2308 42.2121 33.6009 45 26.8971 45H0C28 41.5 47.5 27.5 50 8C52.5 27.5 72 41.5 100 45H73.1029C66.3991 45 59.7692 42.2121 56.513 36.3523C52.9886 30.01 50.7432 22.8334 50 15C49.2568 22.8334 47.0114 30.01 43.487 36.3523Z"
        fill="#8D8D8D" />
    <path
        d="M28.1051 34.2813C26.5344 35.1656 24.8822 35.9962 23.1522 36.7699C22.1695 33.3753 21.8079 29.8138 22.0963 26.266C22.4778 21.5725 23.9851 17.0476 26.4847 13.0923C28.9844 9.137 32.3991 5.87319 36.4265 3.59008C40.4539 1.30698 44.9697 0.0750096 49.5738 0.00331957C54.1779 -0.0683804 58.7282 1.02241 62.8217 3.17906C66.9152 5.3357 70.4255 8.4916 73.0416 12.3673C75.6578 16.243 77.2991 20.7188 77.8202 25.3982C78.2463 29.2257 77.9123 33.0929 76.8478 36.7699C75.1178 35.9962 73.4656 35.1655 71.8949 34.2812C72.5571 31.593 72.7427 28.7964 72.4342 26.0256C72.014 22.2521 70.6904 18.6428 68.5808 15.5175C66.4711 12.3922 63.6404 9.8472 60.3394 8.1081C57.0384 6.36897 53.369 5.48937 49.6563 5.54718C45.9435 5.60499 42.302 6.59845 39.0544 8.4395C35.8067 10.2806 33.053 12.9125 31.0373 16.1021C29.0216 19.2917 27.8061 22.9405 27.4985 26.7254C27.2917 29.2694 27.4993 31.8222 28.1051 34.2813Z"
        fill="#B8B8B8" />
    <path
        d="M103.368 27.344C103.448 28.336 103.608 29.168 103.848 29.84C104.104 30.496 104.496 31.088 105.024 31.616L104.712 32H99.456L99.168 31.184L99.72 31.04C100.232 30.88 100.584 30.68 100.776 30.44C100.984 30.184 101.088 29.808 101.088 29.312L101.04 28.424L100.344 18.416L95.328 30.272H94.032L89.016 18.416L88.488 25.808C88.392 26.928 88.344 27.712 88.344 28.16C88.344 28.816 88.408 29.376 88.536 29.84C88.68 30.288 88.904 30.736 89.208 31.184L89.496 31.616L89.136 32H84.624L84.36 31.184L84.912 31.04C85.536 30.848 85.96 30.608 86.184 30.32C86.424 30.032 86.568 29.528 86.616 28.808L87.264 19.304C87.28 19.096 87.304 18.808 87.336 18.44C87.368 18.072 87.384 17.744 87.384 17.456C87.384 16.912 87.28 16.52 87.072 16.28C86.88 16.04 86.52 15.856 85.992 15.728L85.44 15.584L85.704 14.768H90.072L95.016 26.84L100.104 14.768H103.56L103.92 15.152L103.632 15.584C103.328 16.032 103.104 16.488 102.96 16.952C102.832 17.4 102.768 17.952 102.768 18.608C102.768 18.848 102.808 19.568 102.888 20.768L103.368 27.344ZM111.142 26.72C111.142 27.984 111.542 28.984 112.342 29.72C113.142 30.456 114.15 30.824 115.366 30.824C116.582 30.824 117.59 30.456 118.39 29.72C119.19 28.984 119.59 27.984 119.59 26.72V17.96C119.59 17.224 119.486 16.712 119.278 16.424C119.07 16.136 118.662 15.904 118.054 15.728L117.502 15.584L117.79 14.768H122.35L122.662 15.152L122.35 15.584C121.95 16.112 121.67 16.672 121.51 17.264C121.35 17.856 121.27 18.632 121.27 19.592V26.72C121.27 28.608 120.694 30.016 119.542 30.944C118.39 31.872 116.894 32.336 115.054 32.336C113.182 32.336 111.662 31.872 110.494 30.944C109.342 30.016 108.766 28.608 108.766 26.72V17.96C108.766 17.224 108.662 16.712 108.454 16.424C108.246 16.136 107.838 15.904 107.23 15.728L106.678 15.584L106.966 14.768H112.222L112.534 15.152L112.222 15.584C111.822 16.112 111.542 16.672 111.382 17.264C111.222 17.856 111.142 18.632 111.142 19.592V26.72ZM124.804 31.184L125.356 31.04C125.868 30.896 126.252 30.688 126.508 30.416C126.764 30.128 126.892 29.68 126.892 29.072V16.952C126.892 16.744 126.852 16.6 126.772 16.52C126.692 16.424 126.556 16.376 126.364 16.376H124.972L124.684 15.488C125.452 15.216 126.444 14.976 127.66 14.768C128.876 14.544 130.052 14.432 131.188 14.432C134.532 14.432 136.932 15.264 138.388 16.928C139.86 18.576 140.596 20.736 140.596 23.408C140.596 25.04 140.292 26.504 139.684 27.8C139.092 29.096 138.196 30.12 136.996 30.872C135.812 31.624 134.356 32 132.628 32H125.092L124.804 31.184ZM129.268 27.8C129.268 28.936 129.5 29.72 129.964 30.152C130.444 30.568 131.076 30.776 131.86 30.776C135.94 30.776 137.98 28.304 137.98 23.36C137.98 22.016 137.748 20.768 137.284 19.616C136.82 18.464 136.108 17.536 135.148 16.832C134.204 16.128 133.028 15.776 131.62 15.776C130.052 15.776 129.268 16.144 129.268 16.88V27.8ZM151.399 31.184L151.951 31.04C152.335 30.944 152.607 30.816 152.767 30.656C152.943 30.496 153.031 30.272 153.031 29.984C153.031 29.728 152.943 29.336 152.767 28.808L151.615 25.448H146.071L145.495 27.2C145.127 28.304 144.943 29.144 144.943 29.72C144.943 30.264 145.055 30.752 145.279 31.184L145.495 31.616L145.039 32H140.623L140.335 31.184L140.887 31.04C141.527 30.864 141.991 30.632 142.279 30.344C142.567 30.056 142.839 29.544 143.095 28.808L146.863 17.96C147.039 17.432 147.127 17.04 147.127 16.784C147.127 16.496 147.039 16.272 146.863 16.112C146.703 15.952 146.431 15.824 146.047 15.728L145.495 15.584L145.783 14.768H150.415L155.239 28.688C155.495 29.424 155.775 29.984 156.079 30.368C156.383 30.752 156.823 31.168 157.399 31.616L157.087 32H151.687L151.399 31.184ZM146.575 23.96H151.111L148.807 17.24L146.575 23.96Z"
        fill="#8D8D8D" />
</svg>