<svg width="161" height="40" viewBox="0 0 161 40" fill="none" xmlns="http://www.w3.org/2000/svg">
    <path d="M20 0C8.9543 0 0 8.9543 0 20C11.0457 20 20 11.0457 20 0Z" fill="#8D8D8D" />
    <path d="M20 40C31.0457 40 40 31.0457 40 20C28.9543 20 20 28.9543 20 40Z" fill="#8D8D8D" />
    <path d="M20 0C31.0457 0 40 8.9543 40 20C28.9543 20 20 11.0457 20 0Z" fill="#B8B8B8" />
    <path d="M20 40C8.9543 40 -9.65645e-07 31.0457 0 20C11.0457 20 20 28.9543 20 40Z" fill="#B8B8B8" />
    <path
        d="M53.28 29C52.96 29 52.696 28.936 52.488 28.808C52.296 28.68 52.16 28.504 52.08 28.28C52.016 28.04 52.016 27.784 52.08 27.512C52.16 27.224 52.312 26.928 52.536 26.624L62.136 13.328V14.168H53.088C52.72 14.168 52.44 14.08 52.248 13.904C52.056 13.712 51.96 13.448 51.96 13.112C51.96 12.776 52.056 12.52 52.248 12.344C52.44 12.168 52.72 12.08 53.088 12.08H63.288C63.608 12.08 63.872 12.144 64.08 12.272C64.288 12.4 64.424 12.576 64.488 12.8C64.568 13.024 64.568 13.28 64.488 13.568C64.424 13.856 64.28 14.152 64.056 14.456L54.432 27.752V26.912H63.84C64.208 26.912 64.488 27 64.68 27.176C64.872 27.352 64.968 27.608 64.968 27.944C64.968 28.28 64.872 28.544 64.68 28.736C64.488 28.912 64.208 29 63.84 29H53.28ZM70.9425 29.216C69.9985 29.216 69.2065 29.04 68.5665 28.688C67.9425 28.336 67.4705 27.816 67.1505 27.128C66.8465 26.424 66.6945 25.544 66.6945 24.488V18.344C66.6945 17.928 66.7985 17.624 67.0065 17.432C67.2145 17.224 67.5105 17.12 67.8945 17.12C68.2785 17.12 68.5745 17.224 68.7825 17.432C69.0065 17.624 69.1185 17.928 69.1185 18.344V24.512C69.1185 25.456 69.3105 26.152 69.6945 26.6C70.0785 27.048 70.6865 27.272 71.5185 27.272C72.4305 27.272 73.1665 26.968 73.7265 26.36C74.3025 25.736 74.5905 24.92 74.5905 23.912V18.344C74.5905 17.928 74.6945 17.624 74.9025 17.432C75.1105 17.224 75.4145 17.12 75.8145 17.12C76.1985 17.12 76.4945 17.224 76.7025 17.432C76.9105 17.624 77.0145 17.928 77.0145 18.344V27.944C77.0145 28.76 76.6225 29.168 75.8385 29.168C75.4705 29.168 75.1825 29.064 74.9745 28.856C74.7665 28.632 74.6625 28.328 74.6625 27.944V25.904L74.9745 26.432C74.6545 27.328 74.1425 28.016 73.4385 28.496C72.7345 28.976 71.9025 29.216 70.9425 29.216ZM84.1986 29.216C82.9506 29.216 82.0066 28.856 81.3666 28.136C80.7426 27.4 80.4306 26.344 80.4306 24.968V13.136C80.4306 12.736 80.5346 12.432 80.7426 12.224C80.9506 12.016 81.2466 11.912 81.6306 11.912C82.0146 11.912 82.3106 12.016 82.5186 12.224C82.7426 12.432 82.8546 12.736 82.8546 13.136V24.824C82.8546 25.624 83.0146 26.224 83.3346 26.624C83.6706 27.008 84.1506 27.2 84.7746 27.2C84.9186 27.2 85.0466 27.2 85.1586 27.2C85.2706 27.184 85.3826 27.168 85.4946 27.152C85.6866 27.136 85.8226 27.192 85.9026 27.32C85.9826 27.432 86.0226 27.672 86.0226 28.04C86.0226 28.376 85.9506 28.64 85.8066 28.832C85.6626 29.008 85.4306 29.12 85.1106 29.168C84.9666 29.184 84.8146 29.192 84.6546 29.192C84.4946 29.208 84.3426 29.216 84.1986 29.216ZM91.9425 29.216C90.9985 29.216 90.2065 29.04 89.5665 28.688C88.9425 28.336 88.4705 27.816 88.1505 27.128C87.8465 26.424 87.6945 25.544 87.6945 24.488V18.344C87.6945 17.928 87.7985 17.624 88.0065 17.432C88.2145 17.224 88.5105 17.12 88.8945 17.12C89.2785 17.12 89.5745 17.224 89.7825 17.432C90.0065 17.624 90.1185 17.928 90.1185 18.344V24.512C90.1185 25.456 90.3105 26.152 90.6945 26.6C91.0785 27.048 91.6865 27.272 92.5185 27.272C93.4305 27.272 94.1665 26.968 94.7265 26.36C95.3025 25.736 95.5905 24.92 95.5905 23.912V18.344C95.5905 17.928 95.6945 17.624 95.9025 17.432C96.1105 17.224 96.4145 17.12 96.8145 17.12C97.1985 17.12 97.4945 17.224 97.7025 17.432C97.9105 17.624 98.0145 17.928 98.0145 18.344V27.944C98.0145 28.76 97.6225 29.168 96.8385 29.168C96.4705 29.168 96.1825 29.064 95.9745 28.856C95.7665 28.632 95.6625 28.328 95.6625 27.944V25.904L95.9745 26.432C95.6545 27.328 95.1425 28.016 94.4385 28.496C93.7345 28.976 92.9025 29.216 91.9425 29.216ZM109.367 29C108.935 29 108.599 28.888 108.359 28.664C108.135 28.424 108.023 28.088 108.023 27.656V13.424C108.023 12.992 108.135 12.664 108.359 12.44C108.599 12.2 108.935 12.08 109.367 12.08H115.079C116.247 12.08 117.239 12.256 118.055 12.608C118.887 12.96 119.519 13.464 119.951 14.12C120.399 14.776 120.623 15.568 120.623 16.496C120.623 17.52 120.319 18.384 119.711 19.088C119.103 19.792 118.279 20.264 117.239 20.504V20.144C118.423 20.304 119.351 20.752 120.023 21.488C120.695 22.208 121.031 23.152 121.031 24.32C121.031 25.824 120.535 26.984 119.543 27.8C118.551 28.6 117.159 29 115.367 29H109.367ZM110.423 27.08H115.079C116.279 27.08 117.167 26.848 117.743 26.384C118.319 25.904 118.607 25.184 118.607 24.224C118.607 23.264 118.319 22.552 117.743 22.088C117.167 21.624 116.279 21.392 115.079 21.392H110.423V27.08ZM110.423 19.472H114.695C115.847 19.472 116.719 19.24 117.311 18.776C117.903 18.312 118.199 17.632 118.199 16.736C118.199 15.84 117.903 15.16 117.311 14.696C116.719 14.232 115.847 14 114.695 14H110.423V19.472ZM127.862 29.216C127.046 29.216 126.31 29.056 125.654 28.736C125.014 28.416 124.51 27.984 124.142 27.44C123.774 26.896 123.59 26.28 123.59 25.592C123.59 24.728 123.806 24.048 124.238 23.552C124.686 23.04 125.414 22.68 126.422 22.472C127.446 22.248 128.822 22.136 130.55 22.136H131.678V23.624H130.574C129.422 23.624 128.51 23.68 127.838 23.792C127.166 23.904 126.686 24.096 126.398 24.368C126.126 24.624 125.99 24.984 125.99 25.448C125.99 26.056 126.198 26.552 126.614 26.936C127.03 27.304 127.606 27.488 128.342 27.488C128.934 27.488 129.454 27.352 129.902 27.08C130.35 26.792 130.702 26.408 130.958 25.928C131.23 25.448 131.366 24.896 131.366 24.272V21.512C131.366 20.6 131.174 19.944 130.79 19.544C130.406 19.144 129.774 18.944 128.894 18.944C128.382 18.944 127.846 19.008 127.286 19.136C126.742 19.264 126.174 19.48 125.582 19.784C125.31 19.912 125.078 19.952 124.886 19.904C124.694 19.856 124.542 19.752 124.43 19.592C124.318 19.416 124.254 19.232 124.238 19.04C124.238 18.832 124.286 18.632 124.382 18.44C124.494 18.248 124.678 18.104 124.934 18.008C125.638 17.672 126.334 17.432 127.022 17.288C127.71 17.144 128.358 17.072 128.966 17.072C130.038 17.072 130.918 17.24 131.606 17.576C132.31 17.912 132.83 18.424 133.166 19.112C133.502 19.8 133.67 20.688 133.67 21.776V27.944C133.67 28.328 133.574 28.632 133.382 28.856C133.19 29.064 132.91 29.168 132.542 29.168C132.19 29.168 131.91 29.064 131.702 28.856C131.494 28.632 131.39 28.328 131.39 27.944V26.384H131.606C131.478 26.976 131.238 27.488 130.886 27.92C130.55 28.336 130.126 28.656 129.614 28.88C129.102 29.104 128.518 29.216 127.862 29.216ZM138.209 29.168C137.825 29.168 137.529 29.064 137.321 28.856C137.113 28.632 137.009 28.328 137.009 27.944V18.344C137.009 17.944 137.113 17.64 137.321 17.432C137.529 17.224 137.817 17.12 138.185 17.12C138.569 17.12 138.857 17.224 139.049 17.432C139.257 17.64 139.361 17.944 139.361 18.344V20.216L139.097 19.784C139.449 18.888 140.001 18.216 140.753 17.768C141.505 17.304 142.369 17.072 143.345 17.072C144.273 17.072 145.041 17.248 145.649 17.6C146.273 17.936 146.737 18.456 147.041 19.16C147.345 19.848 147.497 20.72 147.497 21.776V27.944C147.497 28.328 147.393 28.632 147.185 28.856C146.977 29.064 146.681 29.168 146.297 29.168C145.897 29.168 145.593 29.064 145.385 28.856C145.177 28.632 145.073 28.328 145.073 27.944V21.92C145.073 20.912 144.873 20.176 144.473 19.712C144.089 19.248 143.481 19.016 142.649 19.016C141.673 19.016 140.889 19.32 140.297 19.928C139.721 20.536 139.433 21.352 139.433 22.376V27.944C139.433 28.76 139.025 29.168 138.209 29.168ZM152.037 29.168C151.653 29.168 151.357 29.064 151.149 28.856C150.941 28.632 150.837 28.328 150.837 27.944V13.136C150.837 12.736 150.941 12.432 151.149 12.224C151.357 12.016 151.653 11.912 152.037 11.912C152.421 11.912 152.717 12.016 152.925 12.224C153.149 12.432 153.261 12.736 153.261 13.136V22.4H153.309L157.797 17.936C158.053 17.68 158.285 17.48 158.493 17.336C158.701 17.192 158.973 17.12 159.309 17.12C159.645 17.12 159.901 17.208 160.077 17.384C160.253 17.56 160.341 17.776 160.341 18.032C160.341 18.272 160.221 18.52 159.981 18.776L155.229 23.48V22.352L160.413 27.512C160.669 27.768 160.789 28.024 160.773 28.28C160.757 28.536 160.653 28.752 160.461 28.928C160.269 29.088 160.029 29.168 159.741 29.168C159.373 29.168 159.077 29.096 158.853 28.952C158.645 28.808 158.397 28.592 158.109 28.304L153.309 23.648H153.261V27.944C153.261 28.76 152.853 29.168 152.037 29.168Z"
        fill="#8D8D8D" />
</svg>