<svg width="127" height="32" viewBox="0 0 127 32" fill="none" xmlns="http://www.w3.org/2000/svg">
    <g clip-path="url(#clip0_0_1)">
        <path
            d="M16 32H20.8578L19.4436 30.5858C19.0686 30.2107 18.5598 30 18.0294 30H16C8.268 30 2 23.732 2 16C2 8.268 8.268 2.00001 16 2H32C39.732 2 46 8.268 46 16C46 23.732 39.732 30 32 30H26.0147C25.219 30 24.456 29.6839 23.8934 29.1214L22.2366 27.4645C21.2989 26.5268 20.027 26 18.701 26H16C10.4771 26 6 21.5229 6 16C6 10.4771 10.4771 6 16 6H32C37.5229 6 42 10.4771 42 16C42 21.5229 37.5229 26 32 26H28.1569C27.3612 26 26.5982 25.6839 26.0355 25.1214L24.3786 23.4645C23.441 22.5268 22.1692 22 20.8431 22H16C12.6863 22 10 19.3137 10 16C10 12.6863 12.6863 10 16 10H32C35.3137 10 38 12.6863 38 16C38 19.2733 35.3788 21.9344 32.121 21.9988L32.1203 22H30.6569C29.8612 22 29.0982 21.6839 28.5355 21.1214L26.8786 19.4645C26.1093 18.695 25.115 18.2023 24.0502 18.0502L24 18H16C14.8954 18 14 17.1046 14 16C14 14.8954 14.8954 14 16 14H32C33.1046 14 34 14.8954 34 16C34 17.1046 33.1046 18 32 18H28L29.4142 19.4142C29.7893 19.7893 30.298 20 30.8284 20H32C34.2091 20 36 18.2091 36 16C36 13.7909 34.2091 12 32 12H16C13.7909 12 12 13.7909 12 16C12 18.2091 13.7909 20 16 20H23.3431C24.1388 20 24.9018 20.3161 25.4645 20.8786L27.1214 22.5355C28.059 23.4732 29.3308 24 30.6569 24H32.5V23.9846C36.6854 23.7266 40 20.2503 40 16C40 11.5818 36.4182 8 32 8H16C11.5818 8 8 11.5818 8 16C8 20.4183 11.5818 24 16 24H20.8431C21.6388 24 22.4018 24.3161 22.9645 24.8786L24.6214 26.5355C25.559 27.4732 26.8308 28 28.1569 28H32C38.6274 28 44 22.6274 44 16C44 9.37256 38.6274 4 32 4H16C9.37256 4 4 9.37256 4 16C4 22.6274 9.37256 28 16 28H18.701C19.4966 28 20.2597 28.3161 20.8223 28.8786L22.4792 30.5355C23.4169 31.4732 24.6886 32 26.0147 32H32C40.8366 32 48 24.8366 48 16C48 7.16344 40.8366 -7.72516e-07 32 0L16 3.30611e-06C7.16344 4.07863e-06 -7.72516e-07 7.16345 0 16C7.72516e-07 24.8366 7.16345 32 16 32Z"
            fill="#8D8D8D" />
    </g>
    <path
        d="M70.292 20.368V23H59.904V4.66H62.816V20.368H70.292ZM87.652 12.276V9.7H89.92V6.508L92.804 6.228V9.7H98.04V12.276H92.804V17.876C92.804 18.9027 92.9067 19.6307 93.112 20.06C93.3173 20.4707 93.7373 20.676 94.372 20.676C95.4733 20.676 96.7613 20.4987 98.236 20.144L98.712 22.636C97.088 23.0653 95.6413 23.28 94.372 23.28C92.58 23.28 91.3853 22.8787 90.788 22.076C90.2093 21.2733 89.92 19.8733 89.92 17.876V12.276H87.652ZM102.604 11.184C103.556 10.0453 105.021 9.476 107 9.476C108.979 9.476 110.444 10.0453 111.396 11.184C112.348 12.304 112.824 14.04 112.824 16.392C112.824 18.744 112.348 20.4987 111.396 21.656C110.444 22.7947 108.979 23.364 107 23.364C105.021 23.364 103.556 22.7947 102.604 21.656C101.652 20.4987 101.176 18.744 101.176 16.392C101.176 14.04 101.652 12.304 102.604 11.184ZM104.844 13.172C104.471 13.8253 104.284 14.8987 104.284 16.392C104.284 17.8853 104.48 18.968 104.872 19.64C105.264 20.312 105.973 20.648 107 20.648C108.027 20.648 108.736 20.312 109.128 19.64C109.52 18.968 109.716 17.8853 109.716 16.392C109.716 14.8987 109.52 13.8253 109.128 13.172C108.755 12.5187 108.045 12.192 107 12.192C105.955 12.192 105.236 12.5187 104.844 13.172ZM115.708 23V20.424H118.424V12.276H115.708V9.7H121.308L121.364 11.044C122.783 10.2413 124.407 9.73733 126.236 9.532H126.992V12.332H126.236C124.183 12.5187 122.559 12.948 121.364 13.62V20.48H125.536V23H115.708Z"
        fill="#8D8D8D" />
    <path
        d="M74.604 11.184C75.556 10.0453 77.0213 9.476 79 9.476C80.9787 9.476 82.444 10.0453 83.396 11.184C84.348 12.304 84.824 14.04 84.824 16.392C84.824 18.744 84.348 20.4987 83.396 21.656C82.444 22.7947 80.9787 23.364 79 23.364C77.0213 23.364 75.556 22.7947 74.604 21.656C73.652 20.4987 73.176 18.744 73.176 16.392C73.176 14.04 73.652 12.304 74.604 11.184ZM76.844 13.172C76.4707 13.8253 76.284 14.8987 76.284 16.392C76.284 17.8853 76.48 18.968 76.872 19.64C77.264 20.312 77.9733 20.648 79 20.648C80.0267 20.648 80.736 20.312 81.128 19.64C81.52 18.968 81.716 17.8853 81.716 16.392C81.716 14.8987 81.52 13.8253 81.128 13.172C80.7547 12.5187 80.0453 12.192 79 12.192C77.9547 12.192 77.236 12.5187 76.844 13.172Z"
        fill="#B8B8B8" />
    <defs>
        <clipPath id="clip0_0_1">
            <rect width="48" height="32" fill="white" />
        </clipPath>
    </defs>
</svg>