<svg width="15" height="9" viewBox="0 0 15 9" fill="none" xmlns="http://www.w3.org/2000/svg">
    <path
        d="M14.1032 0.276018C14.0161 0.188618 13.9126 0.119272 13.7986 0.071954C13.6847 0.0246364 13.5625 0.000278174 13.4391 0.000278174C13.3157 0.000278174 13.1936 0.0246364 13.0796 0.071954C12.9657 0.119272 12.8622 0.188618 12.7751 0.276018L7.18991 5.86117L1.60319 0.276018C1.42707 0.0998973 1.1882 0.000954087 0.939126 0.000954091C0.690055 0.000954095 0.451184 0.0998973 0.275064 0.276018C0.0989435 0.452138 3.71146e-09 0.691008 0 0.94008C-3.71146e-09 1.18915 0.0989435 1.42802 0.275064 1.60414L6.52506 7.85414C6.61216 7.94154 6.71565 8.01089 6.82961 8.05821C6.94356 8.10553 7.06574 8.12988 7.18913 8.12988C7.31251 8.12988 7.43469 8.10553 7.54864 8.05821C7.6626 8.01089 7.76609 7.94154 7.85319 7.85414L14.1032 1.60414C14.1906 1.51705 14.2599 1.41355 14.3073 1.2996C14.3546 1.18564 14.3789 1.06347 14.3789 0.94008C14.3789 0.816692 14.3546 0.694518 14.3073 0.580563C14.2599 0.466608 14.1906 0.363115 14.1032 0.276018Z"
        fill="#FF4F38" />
</svg>